<svg id="Слой_2" data-name="Слой 2" xmlns="http://www.w3.org/2000/svg" viewBox="0 0 1744 833">
  <defs>
    <style>
      .cls-1 {
        fill: #ffc24b;
      }
    </style>
  </defs>
  <title>туду</title>
  <path class="cls-1" d="M1795,460,1384,356l-13.75-233-204,47H75L53,501l185.36-28.56L189,956,663,856l339.63,35,414.74,25h.24L1797,852.77ZM995,819,682,785,668,425l328-51ZM649,407l5,374L294,856l32-430-200,3,23-223h999l-32,122Zm380,412V374l104-25,34-122,178-41,37,652Zm702-67-317,86-25-450,342,75Z" transform="translate(-53 -123)"/>
  <polygon class="cls-1" points="1394 682 1585.35 612 1585.35 416 1394 682"/>
  <polygon class="cls-1" points="907 670 704.29 612 704.29 416 907 670"/>
</svg>
